<mxfile host="app.diagrams.net" modified="2024-05-17T04:17:29.528Z" agent="Mozilla/5.0 (Windows NT 10.0; Win64; x64) AppleWebKit/537.36 (KHTML, like Gecko) Chrome/124.0.0.0 Safari/537.36 Edg/124.0.0.0" etag="xWcHXYn30fbaa4wsIBis" version="24.4.2" type="device">
  <diagram name="Page-1" id="96nJuOYP7qc74VYr1-mM">
    <mxGraphModel dx="1253" dy="-448" grid="1" gridSize="10" guides="1" tooltips="1" connect="1" arrows="1" fold="1" page="1" pageScale="1" pageWidth="827" pageHeight="1169" math="0" shadow="0">
      <root>
        <mxCell id="0" />
        <mxCell id="1" parent="0" />
        <mxCell id="DfQK7VcI76vEsffELHaV-72" value="Продавец" style="swimlane;whiteSpace=wrap;html=1;" vertex="1" parent="1">
          <mxGeometry x="114" y="1169" width="200" height="511" as="geometry" />
        </mxCell>
        <mxCell id="DfQK7VcI76vEsffELHaV-79" value="Оформление покупки" style="rounded=1;whiteSpace=wrap;html=1;" vertex="1" parent="DfQK7VcI76vEsffELHaV-72">
          <mxGeometry x="55" y="141" width="90" height="39" as="geometry" />
        </mxCell>
        <mxCell id="DfQK7VcI76vEsffELHaV-73" value="Покупатель" style="swimlane;whiteSpace=wrap;html=1;" vertex="1" parent="1">
          <mxGeometry x="314" y="1169" width="200" height="511" as="geometry" />
        </mxCell>
        <mxCell id="DfQK7VcI76vEsffELHaV-76" value="" style="ellipse;html=1;shape=startState;fillColor=#000000;strokeColor=#ff0000;" vertex="1" parent="DfQK7VcI76vEsffELHaV-73">
          <mxGeometry x="80" y="31" width="30" height="30" as="geometry" />
        </mxCell>
        <mxCell id="DfQK7VcI76vEsffELHaV-77" value="" style="edgeStyle=orthogonalEdgeStyle;html=1;verticalAlign=bottom;endArrow=open;endSize=8;strokeColor=#ff0000;rounded=0;" edge="1" parent="DfQK7VcI76vEsffELHaV-73">
          <mxGeometry relative="1" as="geometry">
            <mxPoint x="95" y="81" as="targetPoint" />
            <mxPoint x="94.82" y="61" as="sourcePoint" />
          </mxGeometry>
        </mxCell>
        <mxCell id="DfQK7VcI76vEsffELHaV-78" value="Выбор товара" style="rounded=1;whiteSpace=wrap;html=1;" vertex="1" parent="DfQK7VcI76vEsffELHaV-73">
          <mxGeometry x="57.5" y="91" width="75" height="31" as="geometry" />
        </mxCell>
        <mxCell id="DfQK7VcI76vEsffELHaV-80" value="Оплата покупки" style="rounded=1;whiteSpace=wrap;html=1;" vertex="1" parent="DfQK7VcI76vEsffELHaV-73">
          <mxGeometry x="50" y="181" width="100" height="39" as="geometry" />
        </mxCell>
        <mxCell id="DfQK7VcI76vEsffELHaV-92" style="edgeStyle=orthogonalEdgeStyle;rounded=0;orthogonalLoop=1;jettySize=auto;html=1;exitX=0.5;exitY=1;exitDx=0;exitDy=0;entryX=0.5;entryY=0;entryDx=0;entryDy=0;" edge="1" parent="DfQK7VcI76vEsffELHaV-73" source="DfQK7VcI76vEsffELHaV-84" target="DfQK7VcI76vEsffELHaV-85">
          <mxGeometry relative="1" as="geometry" />
        </mxCell>
        <mxCell id="DfQK7VcI76vEsffELHaV-84" value="получение чека и товара" style="rounded=1;whiteSpace=wrap;html=1;" vertex="1" parent="DfQK7VcI76vEsffELHaV-73">
          <mxGeometry x="45" y="391" width="100" height="49" as="geometry" />
        </mxCell>
        <mxCell id="DfQK7VcI76vEsffELHaV-85" value="" style="ellipse;html=1;shape=endState;fillColor=#000000;strokeColor=#ff0000;" vertex="1" parent="DfQK7VcI76vEsffELHaV-73">
          <mxGeometry x="80" y="471" width="30" height="30" as="geometry" />
        </mxCell>
        <mxCell id="DfQK7VcI76vEsffELHaV-74" value="Система" style="swimlane;whiteSpace=wrap;html=1;" vertex="1" parent="1">
          <mxGeometry x="514" y="1169" width="200" height="511" as="geometry" />
        </mxCell>
        <mxCell id="DfQK7VcI76vEsffELHaV-89" style="edgeStyle=orthogonalEdgeStyle;rounded=0;orthogonalLoop=1;jettySize=auto;html=1;exitX=0.5;exitY=1;exitDx=0;exitDy=0;entryX=0.5;entryY=0;entryDx=0;entryDy=0;" edge="1" parent="DfQK7VcI76vEsffELHaV-74" source="DfQK7VcI76vEsffELHaV-81" target="DfQK7VcI76vEsffELHaV-82">
          <mxGeometry relative="1" as="geometry" />
        </mxCell>
        <mxCell id="DfQK7VcI76vEsffELHaV-81" value="Прием оплаты" style="rounded=1;whiteSpace=wrap;html=1;" vertex="1" parent="DfQK7VcI76vEsffELHaV-74">
          <mxGeometry x="50" y="181" width="100" height="39" as="geometry" />
        </mxCell>
        <mxCell id="DfQK7VcI76vEsffELHaV-90" style="edgeStyle=orthogonalEdgeStyle;rounded=0;orthogonalLoop=1;jettySize=auto;html=1;exitX=0.5;exitY=1;exitDx=0;exitDy=0;" edge="1" parent="DfQK7VcI76vEsffELHaV-74" source="DfQK7VcI76vEsffELHaV-82" target="DfQK7VcI76vEsffELHaV-83">
          <mxGeometry relative="1" as="geometry" />
        </mxCell>
        <mxCell id="DfQK7VcI76vEsffELHaV-82" value="сохранение данных для отчетности" style="rounded=1;whiteSpace=wrap;html=1;" vertex="1" parent="DfQK7VcI76vEsffELHaV-74">
          <mxGeometry x="50" y="251" width="100" height="49" as="geometry" />
        </mxCell>
        <mxCell id="DfQK7VcI76vEsffELHaV-83" value="Выдача чека" style="rounded=1;whiteSpace=wrap;html=1;" vertex="1" parent="DfQK7VcI76vEsffELHaV-74">
          <mxGeometry x="50" y="331" width="100" height="39" as="geometry" />
        </mxCell>
        <mxCell id="DfQK7VcI76vEsffELHaV-86" style="edgeStyle=orthogonalEdgeStyle;rounded=0;orthogonalLoop=1;jettySize=auto;html=1;exitX=0;exitY=0.5;exitDx=0;exitDy=0;entryX=0.5;entryY=0;entryDx=0;entryDy=0;" edge="1" parent="1" source="DfQK7VcI76vEsffELHaV-78" target="DfQK7VcI76vEsffELHaV-79">
          <mxGeometry relative="1" as="geometry" />
        </mxCell>
        <mxCell id="DfQK7VcI76vEsffELHaV-87" style="edgeStyle=orthogonalEdgeStyle;rounded=0;orthogonalLoop=1;jettySize=auto;html=1;exitX=1;exitY=0.5;exitDx=0;exitDy=0;entryX=0.5;entryY=0;entryDx=0;entryDy=0;" edge="1" parent="1" source="DfQK7VcI76vEsffELHaV-79" target="DfQK7VcI76vEsffELHaV-80">
          <mxGeometry relative="1" as="geometry" />
        </mxCell>
        <mxCell id="DfQK7VcI76vEsffELHaV-88" style="edgeStyle=orthogonalEdgeStyle;rounded=0;orthogonalLoop=1;jettySize=auto;html=1;exitX=1;exitY=0.5;exitDx=0;exitDy=0;entryX=0;entryY=0.5;entryDx=0;entryDy=0;" edge="1" parent="1" source="DfQK7VcI76vEsffELHaV-80" target="DfQK7VcI76vEsffELHaV-81">
          <mxGeometry relative="1" as="geometry" />
        </mxCell>
        <mxCell id="DfQK7VcI76vEsffELHaV-91" style="edgeStyle=orthogonalEdgeStyle;rounded=0;orthogonalLoop=1;jettySize=auto;html=1;exitX=0;exitY=0.5;exitDx=0;exitDy=0;" edge="1" parent="1" source="DfQK7VcI76vEsffELHaV-83" target="DfQK7VcI76vEsffELHaV-84">
          <mxGeometry relative="1" as="geometry" />
        </mxCell>
      </root>
    </mxGraphModel>
  </diagram>
</mxfile>
